<svg width="53" height="9" viewBox="0 0 53 9" fill="none" xmlns="http://www.w3.org/2000/svg">
<mask id="path-1-outside-1_27_10" maskUnits="userSpaceOnUse" x="-0.772461" y="-0.799988" width="54" height="10" fill="black">
<rect fill="white" x="-0.772461" y="-0.799988" width="54" height="10"/>
<path d="M17.7435 0.872012H12.9435V3.93201H16.7475V4.49601H12.9435V8.24001H12.3435V0.320012H17.7435V0.872012Z"/>
<path d="M23.3785 8.24001H22.7425L21.7465 5.75601H17.9665L16.9705 8.24001H16.3345L19.5025 0.320012H20.2105L23.3785 8.24001ZM18.1825 5.20401H21.5305L19.8505 0.908012L18.1825 5.20401Z"/>
<path d="M26.0087 0.200012C26.7367 0.200012 27.3487 0.344012 27.8447 0.632012C28.3487 0.920012 28.7327 1.36001 28.9967 1.95201L28.4927 2.33601C28.2607 1.77601 27.9327 1.37201 27.5087 1.12401C27.0927 0.876012 26.5767 0.752012 25.9607 0.752012C25.4887 0.752012 25.0887 0.828012 24.7607 0.980012C24.4327 1.12401 24.1807 1.32001 24.0047 1.56801C23.8367 1.80801 23.7527 2.08001 23.7527 2.38401C23.7527 2.75201 23.8727 3.05601 24.1127 3.29601C24.3527 3.53601 24.7927 3.72801 25.4327 3.87201L26.9927 4.20801C27.7687 4.37601 28.3127 4.62001 28.6247 4.94001C28.9447 5.25201 29.1047 5.65601 29.1047 6.15201C29.1047 6.58401 28.9767 6.96801 28.7207 7.30401C28.4727 7.64001 28.1287 7.90001 27.6887 8.08401C27.2487 8.26801 26.7327 8.36001 26.1407 8.36001C25.5727 8.36001 25.0647 8.28401 24.6167 8.13201C24.1767 7.97201 23.8047 7.75201 23.5007 7.47201C23.1967 7.18401 22.9727 6.84001 22.8287 6.44001L23.3567 6.03201C23.4687 6.40801 23.6527 6.73201 23.9087 7.00401C24.1727 7.26801 24.4967 7.46801 24.8807 7.60401C25.2647 7.74001 25.6927 7.80801 26.1647 7.80801C26.6127 7.80801 27.0127 7.74801 27.3647 7.62801C27.7167 7.50001 27.9887 7.31601 28.1807 7.07601C28.3807 6.83601 28.4807 6.54001 28.4807 6.18801C28.4807 5.85201 28.3607 5.56801 28.1207 5.33601C27.8887 5.10401 27.4727 4.92801 26.8727 4.80801L25.2407 4.44801C24.7367 4.33601 24.3287 4.18801 24.0167 4.00401C23.7047 3.82001 23.4767 3.60001 23.3327 3.34401C23.1967 3.08001 23.1287 2.78401 23.1287 2.45601C23.1287 2.04801 23.2447 1.67601 23.4767 1.34001C23.7087 0.996012 24.0407 0.720012 24.4727 0.512012C24.9047 0.304012 25.4167 0.200012 26.0087 0.200012Z"/>
<path d="M35.8864 0.320012V8.24001H35.2864V0.320012H35.8864ZM30.3904 0.320012V8.24001H29.7904V0.320012H30.3904ZM35.5744 3.93201V4.49601H30.1024V3.93201H35.5744Z"/>
<path d="M40.3243 0.200012C41.0763 0.200012 41.7243 0.368012 42.2683 0.704012C42.8123 1.03201 43.2323 1.50001 43.5283 2.10801C43.8243 2.71601 43.9723 3.44001 43.9723 4.28001C43.9723 5.12001 43.8243 5.84401 43.5283 6.45201C43.2323 7.06001 42.8123 7.53201 42.2683 7.86801C41.7243 8.19601 41.0763 8.36001 40.3243 8.36001C39.5803 8.36001 38.9323 8.19601 38.3803 7.86801C37.8363 7.53201 37.4163 7.06001 37.1203 6.45201C36.8243 5.84401 36.6763 5.12001 36.6763 4.28001C36.6763 3.44001 36.8243 2.71601 37.1203 2.10801C37.4163 1.50001 37.8363 1.03201 38.3803 0.704012C38.9323 0.368012 39.5803 0.200012 40.3243 0.200012ZM40.3243 0.752012C39.7083 0.752012 39.1723 0.896012 38.7163 1.18401C38.2683 1.46401 37.9203 1.86801 37.6723 2.39601C37.4243 2.92401 37.3003 3.55201 37.3003 4.28001C37.3003 5.00801 37.4243 5.63601 37.6723 6.16401C37.9203 6.69201 38.2683 7.10001 38.7163 7.38801C39.1723 7.66801 39.7083 7.80801 40.3243 7.80801C40.9483 7.80801 41.4843 7.66801 41.9323 7.38801C42.3803 7.10001 42.7283 6.69201 42.9763 6.16401C43.2243 5.63601 43.3483 5.00801 43.3483 4.28001C43.3483 3.55201 43.2243 2.92401 42.9763 2.39601C42.7283 1.86801 42.3803 1.46401 41.9323 1.18401C41.4843 0.896012 40.9483 0.752012 40.3243 0.752012Z"/>
<path d="M45.3693 0.320012V8.24001H44.7693V0.320012H45.3693Z"/>
<path d="M52.7471 0.320012V8.24001H52.0031L47.8031 2.02401L47.2151 1.00401H47.2031L47.2391 1.96401V8.24001H46.6631V0.320012H47.4191L51.6071 6.52401L52.2071 7.55601L52.1831 6.59601V0.320012H52.7471Z"/>
<path d="M3.05454 8.39401C2.29187 8.39401 1.66121 8.18501 1.16254 7.76701C0.663872 7.34901 0.352206 6.76601 0.227539 6.01801L1.87754 5.60001C1.91421 5.98868 2.03887 6.28568 2.25154 6.49101C2.46421 6.68901 2.73554 6.78801 3.06554 6.78801C3.45421 6.78801 3.75121 6.66335 3.95654 6.41401C4.16921 6.16468 4.27554 5.81635 4.27554 5.36901V0.650012H5.98054V5.45701C5.98054 6.05101 5.86321 6.56801 5.62854 7.00801C5.40121 7.44801 5.06754 7.78901 4.62754 8.03101C4.19487 8.27301 3.67054 8.39401 3.05454 8.39401Z"/>
<path d="M9.39982 8.39401C8.60049 8.39401 7.92949 8.21068 7.38682 7.84401C6.84415 7.47001 6.45549 6.90535 6.22082 6.15001L7.88182 5.58901C8.02849 6.03635 8.23749 6.36268 8.50882 6.56801C8.78749 6.76601 9.11749 6.86501 9.49882 6.86501C9.90215 6.86501 10.1955 6.79901 10.3788 6.66701C10.5622 6.52768 10.6538 6.35535 10.6538 6.15001C10.6538 5.94468 10.5768 5.77968 10.4228 5.65501C10.2762 5.52301 10.0745 5.41668 9.81782 5.33601C9.56849 5.24801 9.29349 5.16368 8.99282 5.08301C8.69949 5.00235 8.40249 4.91068 8.10182 4.80801C7.80849 4.70535 7.53349 4.56968 7.27682 4.40101C7.02749 4.23235 6.82582 4.01601 6.67182 3.75201C6.52515 3.48801 6.45182 3.15801 6.45182 2.76201C6.45182 2.31468 6.56549 1.92235 6.79282 1.58501C7.02749 1.24768 7.36115 0.983679 7.79382 0.793012C8.23382 0.595012 8.75815 0.496012 9.36682 0.496012C10.0855 0.496012 10.7015 0.672012 11.2148 1.02401C11.7355 1.36868 12.1022 1.87835 12.3148 2.55301L10.7198 3.11401C10.5878 2.72535 10.3935 2.44668 10.1368 2.27801C9.88015 2.10201 9.57215 2.01401 9.21282 2.01401C8.83149 2.01401 8.56015 2.08001 8.39882 2.21201C8.24482 2.34401 8.16782 2.49435 8.16782 2.66301C8.16782 2.84635 8.24482 2.99301 8.39882 3.10301C8.55282 3.21301 8.75449 3.30835 9.00382 3.38901C9.25315 3.46968 9.52815 3.55035 9.82882 3.63101C10.1368 3.70435 10.4412 3.79968 10.7418 3.91701C11.0425 4.02701 11.3175 4.17368 11.5668 4.35701C11.8162 4.53301 12.0178 4.76035 12.1718 5.03901C12.3258 5.31768 12.4028 5.66601 12.4028 6.08401C12.4028 6.53868 12.2818 6.94201 12.0398 7.29401C11.7978 7.63868 11.4532 7.91001 11.0058 8.10801C10.5585 8.29868 10.0232 8.39401 9.39982 8.39401Z"/>
</mask>
<path d="M17.7435 0.872012H12.9435V3.93201H16.7475V4.49601H12.9435V8.24001H12.3435V0.320012H17.7435V0.872012Z" fill="black"/>
<path d="M23.3785 8.24001H22.7425L21.7465 5.75601H17.9665L16.9705 8.24001H16.3345L19.5025 0.320012H20.2105L23.3785 8.24001ZM18.1825 5.20401H21.5305L19.8505 0.908012L18.1825 5.20401Z" fill="black"/>
<path d="M26.0087 0.200012C26.7367 0.200012 27.3487 0.344012 27.8447 0.632012C28.3487 0.920012 28.7327 1.36001 28.9967 1.95201L28.4927 2.33601C28.2607 1.77601 27.9327 1.37201 27.5087 1.12401C27.0927 0.876012 26.5767 0.752012 25.9607 0.752012C25.4887 0.752012 25.0887 0.828012 24.7607 0.980012C24.4327 1.12401 24.1807 1.32001 24.0047 1.56801C23.8367 1.80801 23.7527 2.08001 23.7527 2.38401C23.7527 2.75201 23.8727 3.05601 24.1127 3.29601C24.3527 3.53601 24.7927 3.72801 25.4327 3.87201L26.9927 4.20801C27.7687 4.37601 28.3127 4.62001 28.6247 4.94001C28.9447 5.25201 29.1047 5.65601 29.1047 6.15201C29.1047 6.58401 28.9767 6.96801 28.7207 7.30401C28.4727 7.64001 28.1287 7.90001 27.6887 8.08401C27.2487 8.26801 26.7327 8.36001 26.1407 8.36001C25.5727 8.36001 25.0647 8.28401 24.6167 8.13201C24.1767 7.97201 23.8047 7.75201 23.5007 7.47201C23.1967 7.18401 22.9727 6.84001 22.8287 6.44001L23.3567 6.03201C23.4687 6.40801 23.6527 6.73201 23.9087 7.00401C24.1727 7.26801 24.4967 7.46801 24.8807 7.60401C25.2647 7.74001 25.6927 7.80801 26.1647 7.80801C26.6127 7.80801 27.0127 7.74801 27.3647 7.62801C27.7167 7.50001 27.9887 7.31601 28.1807 7.07601C28.3807 6.83601 28.4807 6.54001 28.4807 6.18801C28.4807 5.85201 28.3607 5.56801 28.1207 5.33601C27.8887 5.10401 27.4727 4.92801 26.8727 4.80801L25.2407 4.44801C24.7367 4.33601 24.3287 4.18801 24.0167 4.00401C23.7047 3.82001 23.4767 3.60001 23.3327 3.34401C23.1967 3.08001 23.1287 2.78401 23.1287 2.45601C23.1287 2.04801 23.2447 1.67601 23.4767 1.34001C23.7087 0.996012 24.0407 0.720012 24.4727 0.512012C24.9047 0.304012 25.4167 0.200012 26.0087 0.200012Z" fill="black"/>
<path d="M35.8864 0.320012V8.24001H35.2864V0.320012H35.8864ZM30.3904 0.320012V8.24001H29.7904V0.320012H30.3904ZM35.5744 3.93201V4.49601H30.1024V3.93201H35.5744Z" fill="black"/>
<path d="M40.3243 0.200012C41.0763 0.200012 41.7243 0.368012 42.2683 0.704012C42.8123 1.03201 43.2323 1.50001 43.5283 2.10801C43.8243 2.71601 43.9723 3.44001 43.9723 4.28001C43.9723 5.12001 43.8243 5.84401 43.5283 6.45201C43.2323 7.06001 42.8123 7.53201 42.2683 7.86801C41.7243 8.19601 41.0763 8.36001 40.3243 8.36001C39.5803 8.36001 38.9323 8.19601 38.3803 7.86801C37.8363 7.53201 37.4163 7.06001 37.1203 6.45201C36.8243 5.84401 36.6763 5.12001 36.6763 4.28001C36.6763 3.44001 36.8243 2.71601 37.1203 2.10801C37.4163 1.50001 37.8363 1.03201 38.3803 0.704012C38.9323 0.368012 39.5803 0.200012 40.3243 0.200012ZM40.3243 0.752012C39.7083 0.752012 39.1723 0.896012 38.7163 1.18401C38.2683 1.46401 37.9203 1.86801 37.6723 2.39601C37.4243 2.92401 37.3003 3.55201 37.3003 4.28001C37.3003 5.00801 37.4243 5.63601 37.6723 6.16401C37.9203 6.69201 38.2683 7.10001 38.7163 7.38801C39.1723 7.66801 39.7083 7.80801 40.3243 7.80801C40.9483 7.80801 41.4843 7.66801 41.9323 7.38801C42.3803 7.10001 42.7283 6.69201 42.9763 6.16401C43.2243 5.63601 43.3483 5.00801 43.3483 4.28001C43.3483 3.55201 43.2243 2.92401 42.9763 2.39601C42.7283 1.86801 42.3803 1.46401 41.9323 1.18401C41.4843 0.896012 40.9483 0.752012 40.3243 0.752012Z" fill="black"/>
<path d="M45.3693 0.320012V8.24001H44.7693V0.320012H45.3693Z" fill="black"/>
<path d="M52.7471 0.320012V8.24001H52.0031L47.8031 2.02401L47.2151 1.00401H47.2031L47.2391 1.96401V8.24001H46.6631V0.320012H47.4191L51.6071 6.52401L52.2071 7.55601L52.1831 6.59601V0.320012H52.7471Z" fill="black"/>
<path d="M3.05454 8.39401C2.29187 8.39401 1.66121 8.18501 1.16254 7.76701C0.663872 7.34901 0.352206 6.76601 0.227539 6.01801L1.87754 5.60001C1.91421 5.98868 2.03887 6.28568 2.25154 6.49101C2.46421 6.68901 2.73554 6.78801 3.06554 6.78801C3.45421 6.78801 3.75121 6.66335 3.95654 6.41401C4.16921 6.16468 4.27554 5.81635 4.27554 5.36901V0.650012H5.98054V5.45701C5.98054 6.05101 5.86321 6.56801 5.62854 7.00801C5.40121 7.44801 5.06754 7.78901 4.62754 8.03101C4.19487 8.27301 3.67054 8.39401 3.05454 8.39401Z" fill="black"/>
<path d="M9.39982 8.39401C8.60049 8.39401 7.92949 8.21068 7.38682 7.84401C6.84415 7.47001 6.45549 6.90535 6.22082 6.15001L7.88182 5.58901C8.02849 6.03635 8.23749 6.36268 8.50882 6.56801C8.78749 6.76601 9.11749 6.86501 9.49882 6.86501C9.90215 6.86501 10.1955 6.79901 10.3788 6.66701C10.5622 6.52768 10.6538 6.35535 10.6538 6.15001C10.6538 5.94468 10.5768 5.77968 10.4228 5.65501C10.2762 5.52301 10.0745 5.41668 9.81782 5.33601C9.56849 5.24801 9.29349 5.16368 8.99282 5.08301C8.69949 5.00235 8.40249 4.91068 8.10182 4.80801C7.80849 4.70535 7.53349 4.56968 7.27682 4.40101C7.02749 4.23235 6.82582 4.01601 6.67182 3.75201C6.52515 3.48801 6.45182 3.15801 6.45182 2.76201C6.45182 2.31468 6.56549 1.92235 6.79282 1.58501C7.02749 1.24768 7.36115 0.983679 7.79382 0.793012C8.23382 0.595012 8.75815 0.496012 9.36682 0.496012C10.0855 0.496012 10.7015 0.672012 11.2148 1.02401C11.7355 1.36868 12.1022 1.87835 12.3148 2.55301L10.7198 3.11401C10.5878 2.72535 10.3935 2.44668 10.1368 2.27801C9.88015 2.10201 9.57215 2.01401 9.21282 2.01401C8.83149 2.01401 8.56015 2.08001 8.39882 2.21201C8.24482 2.34401 8.16782 2.49435 8.16782 2.66301C8.16782 2.84635 8.24482 2.99301 8.39882 3.10301C8.55282 3.21301 8.75449 3.30835 9.00382 3.38901C9.25315 3.46968 9.52815 3.55035 9.82882 3.63101C10.1368 3.70435 10.4412 3.79968 10.7418 3.91701C11.0425 4.02701 11.3175 4.17368 11.5668 4.35701C11.8162 4.53301 12.0178 4.76035 12.1718 5.03901C12.3258 5.31768 12.4028 5.66601 12.4028 6.08401C12.4028 6.53868 12.2818 6.94201 12.0398 7.29401C11.7978 7.63868 11.4532 7.91001 11.0058 8.10801C10.5585 8.29868 10.0232 8.39401 9.39982 8.39401Z" fill="black"/>
<path d="M17.7435 0.872012H12.9435V3.93201H16.7475V4.49601H12.9435V8.24001H12.3435V0.320012H17.7435V0.872012Z" stroke="black" stroke-width="0.4" mask="url(#path-1-outside-1_27_10)"/>
<path d="M23.3785 8.24001H22.7425L21.7465 5.75601H17.9665L16.9705 8.24001H16.3345L19.5025 0.320012H20.2105L23.3785 8.24001ZM18.1825 5.20401H21.5305L19.8505 0.908012L18.1825 5.20401Z" stroke="black" stroke-width="0.4" mask="url(#path-1-outside-1_27_10)"/>
<path d="M26.0087 0.200012C26.7367 0.200012 27.3487 0.344012 27.8447 0.632012C28.3487 0.920012 28.7327 1.36001 28.9967 1.95201L28.4927 2.33601C28.2607 1.77601 27.9327 1.37201 27.5087 1.12401C27.0927 0.876012 26.5767 0.752012 25.9607 0.752012C25.4887 0.752012 25.0887 0.828012 24.7607 0.980012C24.4327 1.12401 24.1807 1.32001 24.0047 1.56801C23.8367 1.80801 23.7527 2.08001 23.7527 2.38401C23.7527 2.75201 23.8727 3.05601 24.1127 3.29601C24.3527 3.53601 24.7927 3.72801 25.4327 3.87201L26.9927 4.20801C27.7687 4.37601 28.3127 4.62001 28.6247 4.94001C28.9447 5.25201 29.1047 5.65601 29.1047 6.15201C29.1047 6.58401 28.9767 6.96801 28.7207 7.30401C28.4727 7.64001 28.1287 7.90001 27.6887 8.08401C27.2487 8.26801 26.7327 8.36001 26.1407 8.36001C25.5727 8.36001 25.0647 8.28401 24.6167 8.13201C24.1767 7.97201 23.8047 7.75201 23.5007 7.47201C23.1967 7.18401 22.9727 6.84001 22.8287 6.44001L23.3567 6.03201C23.4687 6.40801 23.6527 6.73201 23.9087 7.00401C24.1727 7.26801 24.4967 7.46801 24.8807 7.60401C25.2647 7.74001 25.6927 7.80801 26.1647 7.80801C26.6127 7.80801 27.0127 7.74801 27.3647 7.62801C27.7167 7.50001 27.9887 7.31601 28.1807 7.07601C28.3807 6.83601 28.4807 6.54001 28.4807 6.18801C28.4807 5.85201 28.3607 5.56801 28.1207 5.33601C27.8887 5.10401 27.4727 4.92801 26.8727 4.80801L25.2407 4.44801C24.7367 4.33601 24.3287 4.18801 24.0167 4.00401C23.7047 3.82001 23.4767 3.60001 23.3327 3.34401C23.1967 3.08001 23.1287 2.78401 23.1287 2.45601C23.1287 2.04801 23.2447 1.67601 23.4767 1.34001C23.7087 0.996012 24.0407 0.720012 24.4727 0.512012C24.9047 0.304012 25.4167 0.200012 26.0087 0.200012Z" stroke="black" stroke-width="0.4" mask="url(#path-1-outside-1_27_10)"/>
<path d="M35.8864 0.320012V8.24001H35.2864V0.320012H35.8864ZM30.3904 0.320012V8.24001H29.7904V0.320012H30.3904ZM35.5744 3.93201V4.49601H30.1024V3.93201H35.5744Z" stroke="black" stroke-width="0.4" mask="url(#path-1-outside-1_27_10)"/>
<path d="M40.3243 0.200012C41.0763 0.200012 41.7243 0.368012 42.2683 0.704012C42.8123 1.03201 43.2323 1.50001 43.5283 2.10801C43.8243 2.71601 43.9723 3.44001 43.9723 4.28001C43.9723 5.12001 43.8243 5.84401 43.5283 6.45201C43.2323 7.06001 42.8123 7.53201 42.2683 7.86801C41.7243 8.19601 41.0763 8.36001 40.3243 8.36001C39.5803 8.36001 38.9323 8.19601 38.3803 7.86801C37.8363 7.53201 37.4163 7.06001 37.1203 6.45201C36.8243 5.84401 36.6763 5.12001 36.6763 4.28001C36.6763 3.44001 36.8243 2.71601 37.1203 2.10801C37.4163 1.50001 37.8363 1.03201 38.3803 0.704012C38.9323 0.368012 39.5803 0.200012 40.3243 0.200012ZM40.3243 0.752012C39.7083 0.752012 39.1723 0.896012 38.7163 1.18401C38.2683 1.46401 37.9203 1.86801 37.6723 2.39601C37.4243 2.92401 37.3003 3.55201 37.3003 4.28001C37.3003 5.00801 37.4243 5.63601 37.6723 6.16401C37.9203 6.69201 38.2683 7.10001 38.7163 7.38801C39.1723 7.66801 39.7083 7.80801 40.3243 7.80801C40.9483 7.80801 41.4843 7.66801 41.9323 7.38801C42.3803 7.10001 42.7283 6.69201 42.9763 6.16401C43.2243 5.63601 43.3483 5.00801 43.3483 4.28001C43.3483 3.55201 43.2243 2.92401 42.9763 2.39601C42.7283 1.86801 42.3803 1.46401 41.9323 1.18401C41.4843 0.896012 40.9483 0.752012 40.3243 0.752012Z" stroke="black" stroke-width="0.4" mask="url(#path-1-outside-1_27_10)"/>
<path d="M45.3693 0.320012V8.24001H44.7693V0.320012H45.3693Z" stroke="black" stroke-width="0.4" mask="url(#path-1-outside-1_27_10)"/>
<path d="M52.7471 0.320012V8.24001H52.0031L47.8031 2.02401L47.2151 1.00401H47.2031L47.2391 1.96401V8.24001H46.6631V0.320012H47.4191L51.6071 6.52401L52.2071 7.55601L52.1831 6.59601V0.320012H52.7471Z" stroke="black" stroke-width="0.4" mask="url(#path-1-outside-1_27_10)"/>
<path d="M3.05454 8.39401C2.29187 8.39401 1.66121 8.18501 1.16254 7.76701C0.663872 7.34901 0.352206 6.76601 0.227539 6.01801L1.87754 5.60001C1.91421 5.98868 2.03887 6.28568 2.25154 6.49101C2.46421 6.68901 2.73554 6.78801 3.06554 6.78801C3.45421 6.78801 3.75121 6.66335 3.95654 6.41401C4.16921 6.16468 4.27554 5.81635 4.27554 5.36901V0.650012H5.98054V5.45701C5.98054 6.05101 5.86321 6.56801 5.62854 7.00801C5.40121 7.44801 5.06754 7.78901 4.62754 8.03101C4.19487 8.27301 3.67054 8.39401 3.05454 8.39401Z" stroke="black" stroke-width="0.4" mask="url(#path-1-outside-1_27_10)"/>
<path d="M9.39982 8.39401C8.60049 8.39401 7.92949 8.21068 7.38682 7.84401C6.84415 7.47001 6.45549 6.90535 6.22082 6.15001L7.88182 5.58901C8.02849 6.03635 8.23749 6.36268 8.50882 6.56801C8.78749 6.76601 9.11749 6.86501 9.49882 6.86501C9.90215 6.86501 10.1955 6.79901 10.3788 6.66701C10.5622 6.52768 10.6538 6.35535 10.6538 6.15001C10.6538 5.94468 10.5768 5.77968 10.4228 5.65501C10.2762 5.52301 10.0745 5.41668 9.81782 5.33601C9.56849 5.24801 9.29349 5.16368 8.99282 5.08301C8.69949 5.00235 8.40249 4.91068 8.10182 4.80801C7.80849 4.70535 7.53349 4.56968 7.27682 4.40101C7.02749 4.23235 6.82582 4.01601 6.67182 3.75201C6.52515 3.48801 6.45182 3.15801 6.45182 2.76201C6.45182 2.31468 6.56549 1.92235 6.79282 1.58501C7.02749 1.24768 7.36115 0.983679 7.79382 0.793012C8.23382 0.595012 8.75815 0.496012 9.36682 0.496012C10.0855 0.496012 10.7015 0.672012 11.2148 1.02401C11.7355 1.36868 12.1022 1.87835 12.3148 2.55301L10.7198 3.11401C10.5878 2.72535 10.3935 2.44668 10.1368 2.27801C9.88015 2.10201 9.57215 2.01401 9.21282 2.01401C8.83149 2.01401 8.56015 2.08001 8.39882 2.21201C8.24482 2.34401 8.16782 2.49435 8.16782 2.66301C8.16782 2.84635 8.24482 2.99301 8.39882 3.10301C8.55282 3.21301 8.75449 3.30835 9.00382 3.38901C9.25315 3.46968 9.52815 3.55035 9.82882 3.63101C10.1368 3.70435 10.4412 3.79968 10.7418 3.91701C11.0425 4.02701 11.3175 4.17368 11.5668 4.35701C11.8162 4.53301 12.0178 4.76035 12.1718 5.03901C12.3258 5.31768 12.4028 5.66601 12.4028 6.08401C12.4028 6.53868 12.2818 6.94201 12.0398 7.29401C11.7978 7.63868 11.4532 7.91001 11.0058 8.10801C10.5585 8.29868 10.0232 8.39401 9.39982 8.39401Z" stroke="black" stroke-width="0.4" mask="url(#path-1-outside-1_27_10)"/>
</svg>
